<html>
<head>
<meta charset="UTF-8">
<meta name="viewport" content="width=device-width, initial-scale=1.0"/>

<style>
.comment
{
    padding-left: 20px;
    margin-top: 4px;
    margin-right: 4px;
    margin-bottom: 4px;
    border: 2px #000 solid;
}
.submission
{
    border: 4px #00f solid;
    padding-left: 20px;
}
.hidden
{
    display: none;
}
</style>
</head>
<body><div class="submission" id="t3_670n9m">
    <p class="userinfo">
        <a href="https://www.reddit.com/u/Ethan2k16">Ethan2k16</a>
        <span class="score"> | 11 points</span>
        <span class="timestamp"> | Apr 23 2017 05:20:05</span>
    </p>
    <strong>[ANIME] Tenkai Knights dubbed TVRip [16.34 GB]</strong>
    <p><pre><code>Link: https://mega.nz/#F!7cIhxSwD
DKey: !HhAWQJqriqGcuBneznsMfw
</code></pre></p>
    <p class="toolbar">
        <a href="https://www.reddit.com/r/megalinks/comments/670n9m">permalink</a>
    </p>
</div>
<div class="comment" id="t1_dgmrdzj">
    <p class="userinfo">
        <a
        class="toggle_hide_button"
        href="javascript:void(0)"
        onclick="toggle_collapse(this.parentElement.parentElement)">[-]
        </a>
        <a href="https://www.reddit.com/u/Ethan2k16">Ethan2k16</a>
        <span class="score"> | 1 points</span>
        <span class="timestamp"> | Apr 23 2017 05:21:17</span>
    </p>
    <div class="collapsible">
        <p>Mediainfo:</p>
<pre><code>General
Complete name                            : Tenkai Knights - 13 - Vilius Unleashed [A-M].avi
Format                                   : AVI
Format/Info                              : Audio Video Interleave
File size                                : 337 MiB
Duration                                 : 22 min 1 s
Overall bit rate                         : 2 142 kb/s
Writing application                      : Lavf55.3.100

Video
ID                                       : 0
Format                                   : MPEG-4 Visual
Format profile                           : Simple@L3
Format settings, BVOP                    : No
Format settings, QPel                    : No
Format settings, GMC                     : No warppoints
Format settings, Matrix                  : Default (H.263)
Codec ID                                 : XVID
Codec ID/Hint                            : XviD
Duration                                 : 22 min 1 s
Bit rate                                 : 1 937 kb/s
Width                                    : 1 280 pixels
Height                                   : 720 pixels
Display aspect ratio                     : 16:9
Frame rate                               : 23.976 (24000/1001) FPS
Color space                              : YUV
Chroma subsampling                       : 4:2:0
Bit depth                                : 8 bits
Scan type                                : Progressive
Compression mode                         : Lossy
Bits/(Pixel*Frame)                       : 0.088
Stream size                              : 305 MiB (90%)
Title                                    : Episode 13: Vilius Uleashed
Writing library                          : XviD 64

Audio
ID                                       : 1
Format                                   : MPEG Audio
Format version                           : Version 1
Format profile                           : Layer 3
Codec ID                                 : 55
Codec ID/Hint                            : MP3
Duration                                 : 22 min 1 s
Bit rate mode                            : Constant
Bit rate                                 : 192 kb/s
Channel(s)                               : 2 channels
Sampling rate                            : 48.0 kHz
Compression mode                         : Lossy
Stream size                              : 30.2 MiB (9%)
Alignment                                : Aligned on interleaves
Interleave, duration                     : 24  ms (0.58 video frame)
Interleave, preload duration             : 24  ms
Title                                    : English Audio
</code></pre>
        <p class="toolbar">
            <a href="https://www.reddit.com/r/megalinks/comments/670n9m/_/dgmrdzj">permalink</a>
        </p>
        
    </div>
</div>
</body>

<script>
function toggle_collapse(comment_div)
{
    var button = comment_div.getElementsByClassName("toggle_hide_button")[0];
    var collapsible = comment_div.getElementsByClassName("collapsible")[0];
    if (collapsible.classList.contains("hidden"))
    {
        collapsible.classList.remove("hidden");
        button.innerText = "[-]";
    }
    else
    {
        collapsible.classList.add("hidden");
        button.innerText = "[+]";
    }
}
</script>
</html>
